/* XPM */
static char *d7d12f0cc9994f16f0ad90b536370fa48zXJnE31pVvEqDk1[] = {
/* columns rows colors chars-per-pixel */
"64 64 147 2 ",
"   c None",
".  c #000000",
"X  c #0B0B0C",
"o  c #131414",
"O  c #17181A",
"+  c #1B1B1D",
"@  c #1E1F21",
"#  c #212224",
"$  c #262729",
"%  c #272829",
"&  c #2A2A2C",
"*  c #2E2E32",
"=  c #2F3034",
"-  c #323234",
";  c #363739",
":  c #37383B",
">  c #3A3B3E",
",  c #3D3E42",
"<  c #3F4046",
"1  c #404145",
"2  c #44454A",
"3  c #47484A",
"4  c #494A4D",
"5  c #4D4D52",
"6  c #4F5053",
"7  c #525355",
"8  c #53545B",
"9  c #57585C",
"0  c #595A5E",
"q  c #5C5D64",
"w  c #616266",
"e  c #64656B",
"r  c #67686D",
"t  c #6B6C6E",
"y  c #676872",
"u  c #6C6D74",
"i  c #6F7075",
"p  c #6F707A",
"a  c #73757B",
"s  c #78797E",
"d  c #757680",
"f  c #777883",
"g  c #7B7D83",
"h  c #7C7D89",
"j  c #7F8085",
"k  c #808287",
"l  c #83848A",
"z  c #87888E",
"x  c #8E8E8E",
"c  c #868791",
"v  c #8A8C93",
"b  c #8F9197",
"n  c #8F919C",
"m  c #989897",
"M  c #93959B",
"N  c #97999F",
"B  c #9395A3",
"V  c #9799A0",
"C  c #9C9DA4",
"Z  c #9A9CAB",
"A  c #9EA0A7",
"S  c #9FA1AA",
"D  c #A3A5AC",
"F  c #A3A5B4",
"G  c #A7A9B1",
"H  c #ABADB4",
"J  c #A7A8B8",
"K  c #AAACBC",
"L  c #AFB1B9",
"P  c #B4B4B4",
"I  c #B3B5BD",
"U  c #B2B4C5",
"Y  c #B6B9C1",
"T  c #BABCC5",
"R  c #B5B7C8",
"E  c #B7B9CB",
"W  c #BBBDCE",
"Q  c #BCBED1",
"!  c #BEC1CA",
"~  c #BEC0D2",
"^  c #C3C5CE",
"/  c #C2C4D5",
"(  c #C6C9D2",
")  c #CACDD6",
"_  c #C6C9D9",
"`  c #CBCDDB",
"'  c #CFD1DB",
"]  c #D2D4DE",
"[  c #DDDDDD",
"{  c #CFD1E0",
"}  c #D3D5E2",
"|  c #D6D9E4",
" . c #DADDE7",
".. c #D9DCE6",
"X. c #D9DCE5",
"o. c #DBDEE8",
"O. c #DBDEE9",
"+. c #DCDEE9",
"@. c #DCDFE9",
"#. c #DDDFEA",
"$. c #DCDEEB",
"%. c #DADCE9",
"&. c #DDE0EA",
"*. c #DEE0EB",
"=. c #DEE1EB",
"-. c #DEE1EC",
";. c #DEE1ED",
":. c #DFE2EC",
">. c #DEE1EE",
",. c #DEE1ED",
"<. c #E0E3ED",
"1. c #E0E3EE",
"2. c #E1E3EE",
"3. c #E1E4EE",
"4. c #E1E4EF",
"5. c #E2E5EF",
"6. c #E1E3EF",
"7. c #EAEAEA",
"8. c #E1E3F0",
"9. c #E1E4F0",
"0. c #E3E6F0",
"q. c #E3E6F1",
"w. c #E3E6F3",
"e. c #E4E7F1",
"r. c #E4E7F2",
"t. c #E3E6F2",
"y. c #E5E8F3",
"u. c #E6E9F3",
"i. c #E5E8F4",
"p. c #E6E9F4",
"a. c #E7EAF4",
"s. c #E7EAF5",
"d. c #E7EBF5",
"f. c #E7EAF6",
"g. c #E7EBF6",
"h. c #E7EAF5",
"j. c #E8EBF6",
"k. c #E8EBF7",
"l. c #E9ECF7",
"z. c #E8EBF6",
"x. c #E9ECF8",
"c. c #E9EDF8",
"v. c #EAEDF8",
"b. c #EAEDF9",
"n. c #EAEEF9",
"m. c #EBEEF9",
"M. c #EAEDF8",
/* pixels */
"                                          # : 3 6 7 5 4 > $                                                                     ",
"                                    > i C ! ' X.=.-.-.X.' ^ G g 7 #                                                             ",
"                                2 N ' a.m.l.l.l.k.a.a.j.k.x.b.k.=.T g ;                                                         ",
"                            @ g } x.k.k.j.a.a.a.a.a.a.a.a.k.a.i.a.b.a.( a #                                                     ",
"                          * D y.k.a.a.a.k.a.a.a.a.k.i.a.k.a.a.k.k.a.a.x.a.H 1                                                   ",
"                        & H l.y.k.a.k.i.a.i.k.k.a.a.k.a.k.a.a.k.a.a.k.a.j.b.( 7                                                 ",
"                        C l.j.y.k.a.a.a.a.k.i.a.k.k.a.a.i.a.a.a.a.k.a.a.a.a.l.) 5                                               ",
"                      a 5.a.j.j.a.i.k.k.a.i.k.a.a.a.a.k.a.k.k.i.a.a.a.a.a.j.j.b.T ;                                             ",
"                    1 ) l.y.j.j.i.a.k.k.i.a.k.a.a.a.i.k.i.k.k.a.k.k.a.a.a.a.k.k.x.V                                             ",
"                    b l.j.j.j.y.k.a.a.a.a.k.a.i.k.k.a.a.a.a.a.i.i.a.i.k.k.a.i.a.k.O.0                                           ",
"                  1 ' l.j.j.j.y.k.a.a.a.a.a.k.k.i.a.k.a.k.a.a.k.a.i.a.k.k.i.a.i.a.b.D                                           ",
"                  k j.y.y.y.j.j.a.i.k.k.k.i.a.a.a.k.a.i.k.a.a.k.k.k.a.a.a.a.k.k.a.a...5                                         ",
"                  Y b.a.l.j.a.a.k.a.a.a.a.a.a.k.a.a.k.a.k.a.a.a.a.a.k.i.a.k.a.a.a.a.b.k                                         ",
"                5 X.b.8.X.a.j.a.a.i.k.i.k.k.a.a.k.i.k.a.a.i.k.i.i.k.a.a.a.a.k.a.a.a.b.H                                         ",
"                s l.P 3 & i X.j.a.k.i.k.i.a.a.a.k.a.i.a.a.k.i.k.a.a.k.k.k.k.a.i.k.k.x.` ;                                       ",
"                D ( 7 m # . a a.a.k.a.a.a.k.b.x.b.k.a.k.a.k.a.a.k.a.i.a.i.a.a.k.a.a.a.O.7                                       ",
"                ^ j 7 7.> . & | l.a.a.a.k.t.D i z ) l.a.a.a.k.a.k.a.a.a.a.a.i.k.j.j.j.5.r                                       ",
"              , ] r X * X . + ) l.a.k.a.a.k 3 % . - ^ l.a.a.a.a.a.i.k.k.k.k.a.a.y.y.j.j.a                                       ",
"              7 2.l . . . . ; X.j.a.a.b.! ; [ P . . w a.a.a.k.k.a.k.i.a.i.a.k.a.j.j.j.j.k                                       ",
"              r a.( % . . X M a.a.a.a.m.M X x t . . * X.x.a.a.a.a.i.k.a.a.k.a.i.j.y.j.l.k                                       ",
"              a k.k.Y q 4 N t.k.k.a.a.b.N . . . . . * X.k.a.a.i.k.k.i.a.i.a.k.k.j.j.y.l.k                                       ",
"              l k.a.b.a.t.b.a.a.a.a.k.x.^ O . . . . e a.a.a.k.k.a.a.a.k.k.a.a.a.y.j.j.j.s                                       ",
"              v b.a.k.a.a.a.a.k.a.k.a.a.a.z X . . : ( k.k.i.a.a.a.a.a.k.k.a.a.a.a.a.j.e.u                                       ",
"              b b.a.a.a.k.a.a.a.a.a.k.a.a.i.P g v ' k.a.k.a.k.a.k.k.a.i.a.a.k.a.a.a.j.2.q                                       ",
"              M b.a.a.a.a.a.b.b.x.a.a.k.k.i.x.b.b.x.a.k.a.k.a.i.i.a.k.a.a.a.k.a.y.j.j.X.5                                       ",
"              b b.a.a.a.a.j.( C L w.k.a.a.a.a.k.a.a.a.a.i.k.a.k.a.k.a.i.k.i.k.a.j.j.j.] 1                                       ",
"              v b.a.a.k.a.V # . X a t.a.a.k.a.k.k.a.k.a.a.a.k.a.a.a.k.k.i.k.i.a.j.y.l.) :                                       ",
"              l b.a.a.b.H o . . . X C b.a.k.a.a.i.a.k.a.k.a.i.a.k.i.a.a.a.a.a.k.j.j.l.^ &                                       ",
"              g a.a.a.k.e . . . . . 3 5.j.j.k.a.a.k.a.a.k.i.a.k.a.a.i.k.k.k.i.a.j.j.l.!                                         ",
"              i a.k.a.k.! w $ X . . + ' l.a.a.a.a.a.k.a.k.a.i.k.k.k.a.a.a.a.a.k.y.j.l.Y                                         ",
"              q 8.a.k.k.b.a.} Y v t g =.j.a.a.k.k.k.a.i.a.i.a.a.i.a.k.a.a.a.a.k.y.j.b.I                                         ",
"              5 ..a.a.a.a.a.a.b.m.b.l.j.a.a.a.a.i.a.a.k.a.k.k.a.a.k.a.i.k.k.a.i.j.j.b.I                                         ",
"              : ` k.a.i.a.i.a.k.a.i.a.k.a.k.k.a.a.k.k.a.k.a.a.a.a.k.i.a.k.k.i.a.j.j.l.P                                         ",
"                Y k.k.k.k.k.a.a.k.k.a.a.a.a.a.a.a.a.a.a.a.a.a.a.a.i.k.a.a.a.a.k.y.j.l.I                                         ",
"            % 9 ^ l.a.a.a.a.k.i.a.a.k.i.k.a.a.k.k.i.a.k.a.k.a.a.k.k.i.a.a.a.a.k.y.j.b.I                                         ",
"        < z ! 8.a.l.k.a.i.k.a.a.i.k.a.a.k.a.a.k.k.a.a.k.a.a.g.g.a.a.a.k.k.k.a.i.j.l.l.T                                         ",
"    : v ] x.x.k.t.^ y.j.a.a.k.k.a.a.k.i.a.a.a.a.a.a.k.a.g.l.b.l.l.b.j.a.i.a.a.k.a.k.b.^ &                                       ",
"  e ( m.x.k.a.a.t.g ' j.k.a.i.a.k.a.k.a.a.a.a.a.k.k.b.w.X.( T I L Y $.j.a.k.a.i.a.a.x.` :                                       ",
"4 | e.-.8.w.a.a.m.C A b.k.a.a.k.a.k.a.a.g.g.l.b.O.Y v a i a j c v z ` x.k.a.k.a.a.a.j.| 4                                       ",
"$ q e u K ` %.t.8.Y i -.a.k.a.a.a.a.i.k.g.l.) b u j G ) &.y.x.x.l.b.k.a.a.i.k.a.a.a.a.-.q                                       ",
"        2 F ~ / Q Q d H b.a.k.a.k.i.a.x.} v u A } a.b.x.a.a.a.k.j.a.j.a.a.k.i.a.a.a.k.a.s                                       ",
"          2 K ~ ~ ~ Z 8 ..x.a.a.k.a.a.H u A =.b.k.k.a.a.a.k.a.a.l.5.O.a.a.k.a.k.k.i.k.x.V                                       ",
"            , f n h 2 X c w.a.k.a.b.L s ' b.g.g.i.a.a.i.a.a.w.8.W a C a.i.a.k.a.a.a.a.k.T %                                     ",
"                        * K w.a.a.k.c G | ' ' } 8.a.k.k.k.8.{ F w G 8.a.k.a.a.i.k.k.a.k.-.0                                     ",
"                          8 ~ w.a.b.T i y e a E / %.k.k.| / F e T m.a.a.k.a.a.k.a.a.w.k.k.I -                                   ",
"                            d _ 8.a.x.t.-.X.v p E Q ` ` ~ U e Y b.k.k.a.k.a.a.k.w.k.k.a.a.k.I 5                                 ",
"                            @ v / O.k.a.k.a.a.v p U Q Q J y Z b.a.k.a.a.i.a.a.a.k.k.a.a.a.a.k.} M 7 &                           ",
"                              * Z / } w.a.a.a.2.M e u y e H a.a.a.a.a.k.a.k.k.i.a.a.a.k.k.a.k.k.l.$.( H v 2                     ",
"                                , F Q _ >.a.a.k.k.} Y T O.x.a.a.k.a.a.i.a.i.a.k.k.a.a.a.a.a.i.k.a.a.b.b.b.' 7                   ",
"                                  2 K Q Q } 8.a.a.k.b.x.k.a.a.k.i.a.k.k.k.k.a.a.a.i.k.k.k.k.a.a.a.a.a.a.a.b.G                   ",
"                                    5 J Q Q / } t.a.a.a.a.a.a.k.a.k.a.a.a.a.k.i.a.k.i.a.i.a.k.a.a.a.a.k.a.l.( -                 ",
"                                      , Z Q Q Q / } 8.a.k.k.a.a.a.a.k.a.i.k.a.a.a.i.k.a.a.k.a.k.k.k.a.a.a.g.( =                 ",
"                                        * h E Q Q Q ~ ` | 8.a.a.k.i.a.a.f.f.i.k.k.k.i.a.a.a.x.x.k.a.k.a.a.k.!                   ",
"                                            8 Z Q Q Q W Q / _ { %.8.w.i.f.f.f.i.a.a.a.w.w.-.| } %.w.a.a.k.b.T                   ",
"                                              & y J Q Q Q Q W Q Q Q / _ _ ` ` ` ` _ _ _ Q Q Q Q Q | k.k.a.b.I                   ",
"                                                  * y Z E Q Q W Q W Q W W W Q Q Q W W Q Q Q E Q Q / w.a.a.b.Y                   ",
"                                                      $ 5 h Z R Q Q Q Q Q E E Q Q W Q Q Q Q Q Q Q / 8.k.a.j.] 1                 ",
"                                                            $ 2 q h n F U U U U U U U Z B n Z W Q Q $.k.a.a.j.J 8 2 ,           ",
"                                                                      $ * , , 2 2 , - $ @   @ y E W | k.a.a.a.k.=.| ] Y g *     ",
"                                                                                              @ B Q ` a.a.a.a.a.l.l.l.l.l.Y 7   ",
"                                                                                                q Q Q %.k.i.i.w.2.} ` ` } $.! < ",
"                                                                                                $ Z ~ ~ { { ` U f 8 5 8 r k v , ",
"                                                                                                  5 K W E K l ,                 ",
"                                                                                                    , q 8 ,                     "
};
